<svg width="16" height="16" viewBox="0 0 16 16" fill="none" xmlns="http://www.w3.org/2000/svg">
<g clip-path="url(#clip0_1_28)">
<path fill-rule="evenodd" clip-rule="evenodd" d="M7.33334 6.66666C6.96515 6.66666 6.66668 6.96514 6.66668 7.33333V13.3333C6.66668 13.7015 6.96515 14 7.33334 14H13.3333C13.7015 14 14 13.7015 14 13.3333V7.33333C14 6.96514 13.7015 6.66666 13.3333 6.66666H7.33334ZM5.33334 7.33333C5.33334 6.22876 6.22877 5.33333 7.33334 5.33333H13.3333C14.4379 5.33333 15.3333 6.22876 15.3333 7.33333V13.3333C15.3333 14.4379 14.4379 15.3333 13.3333 15.3333H7.33334C6.22877 15.3333 5.33334 14.4379 5.33334 13.3333V7.33333Z" fill="white"/>
<path fill-rule="evenodd" clip-rule="evenodd" d="M2.66666 2.00001C2.48985 2.00001 2.32028 2.07024 2.19525 2.19527C2.07023 2.32029 1.99999 2.48986 1.99999 2.66667V8.66667C1.99999 8.84348 2.07023 9.01305 2.19525 9.13808C2.32028 9.2631 2.48985 9.33334 2.66666 9.33334H3.33332C3.70151 9.33334 3.99999 9.63181 3.99999 10C3.99999 10.3682 3.70151 10.6667 3.33332 10.6667H2.66666C2.13622 10.6667 1.62752 10.456 1.25244 10.0809C0.87737 9.70581 0.666656 9.19711 0.666656 8.66667V2.66667C0.666656 2.13624 0.87737 1.62753 1.25244 1.25246C1.62752 0.877385 2.13622 0.666672 2.66666 0.666672H8.66666C9.19709 0.666672 9.7058 0.877385 10.0809 1.25246C10.4559 1.62753 10.6667 2.13624 10.6667 2.66667V3.33334C10.6667 3.70153 10.3682 4.00001 9.99999 4.00001C9.6318 4.00001 9.33332 3.70153 9.33332 3.33334V2.66667C9.33332 2.48986 9.26309 2.32029 9.13806 2.19527C9.01304 2.07024 8.84347 2.00001 8.66666 2.00001H2.66666Z" fill="white"/>
</g>
<defs>
<clipPath id="clip0_1_28">
<rect width="16" height="16" fill="white"/>
</clipPath>
</defs>
</svg>
