<svg width="11" height="15" viewBox="0 0 11 15" fill="none" xmlns="http://www.w3.org/2000/svg">
<path fill-rule="evenodd" clip-rule="evenodd" d="M1.33333 1.81981V7.09762C1.72193 7.03661 2.1645 6.99998 2.66667 6.99998C3.9245 6.99998 4.96076 7.41471 5.76201 7.7354C5.77186 7.73934 5.78167 7.74327 5.79145 7.74718L5.82852 7.76201C6.68703 8.10541 7.29284 8.33331 8 8.33331C8.61945 8.33331 9.05107 8.25832 9.33333 8.18015V2.90234C8.94474 2.96335 8.50217 2.99998 8 2.99998C6.74217 2.99998 5.70591 2.58525 4.90466 2.26456C4.89481 2.26062 4.885 2.25669 4.87522 2.25278L4.83815 2.23795C3.97962 1.89454 3.37383 1.66665 2.66667 1.66665C2.04721 1.66665 1.6156 1.74164 1.33333 1.81981ZM0.583333 0.666646C0.999986 0.499985 1.66665 0.333313 2.66667 0.333313C3.66667 0.333313 4.50036 0.66679 5.33227 0.999555L5.37054 1.01487C6.1906 1.343 7.01537 1.66665 8 1.66665C8.80136 1.66665 9.38838 1.55959 9.80376 1.43165C10.006 1.36936 10.2258 1.40677 10.396 1.53246C10.5662 1.65814 10.6667 1.85718 10.6667 2.06878V8.64128C10.6667 8.89461 10.5231 9.12605 10.2961 9.23857C10.2339 9.26942 10.1631 9.30139 10.0833 9.33331C9.66668 9.49997 9.00002 9.66665 8 9.66665C7 9.66665 6.16631 9.33317 5.33439 9.0004L5.29615 8.98511C4.4761 8.65698 3.6513 8.33331 2.66667 8.33331C1.8653 8.33331 1.27829 8.44037 0.862911 8.56831C0.660688 8.6306 0.440903 8.59319 0.270677 8.4675C0.100451 8.34181 0 8.14278 0 7.93118V1.35868C0 1.10535 0.143584 0.873907 0.370556 0.761385C0.432786 0.730535 0.50352 0.698572 0.583333 0.666646Z" fill="black"/>
<path fill-rule="evenodd" clip-rule="evenodd" d="M0.666667 5.66665C1.03486 5.66665 1.33333 5.96512 1.33333 6.33331V13.6666C1.33333 14.0348 1.03486 14.3333 0.666667 14.3333C0.298477 14.3333 0 14.0348 0 13.6666V6.33331C0 5.96512 0.298477 5.66665 0.666667 5.66665Z" fill="black"/>
</svg>
