<svg width="96" height="22" viewBox="0 0 96 22" fill="none" xmlns="http://www.w3.org/2000/svg">
<path d="M-0.000139243 20.8753V1.26874C-0.00372744 1.17675 0.0108587 1.08496 0.0427646 0.998744C0.0746705 0.912529 0.123255 0.833626 0.185671 0.766655C0.24712 0.702094 0.321305 0.651343 0.403405 0.617703C0.485505 0.584063 0.57368 0.568287 0.662199 0.5714H4.26728C4.35577 0.568512 4.44388 0.584391 4.52595 0.618018C4.60801 0.651644 4.68222 0.702275 4.74381 0.766655C4.80602 0.83377 4.85447 0.912697 4.88636 0.998876C4.91826 1.08506 4.93296 1.17678 4.92962 1.26874V7.68248C5.37413 7.23577 5.90336 6.88471 6.48545 6.65042C7.08532 6.4131 7.72439 6.2937 8.36844 6.2986C10.3836 6.2986 12.0764 7.05593 13.4467 8.57058C14.817 10.0852 15.5033 11.9448 15.5057 14.1493C15.5057 16.352 14.8194 18.2116 13.4467 19.728C12.074 21.2445 10.3812 22.0018 8.36844 22C7.72343 22.0065 7.08311 21.8883 6.48189 21.6518C5.89735 21.4156 5.36758 21.0593 4.92606 20.6053V20.8753C4.9296 20.9673 4.91499 21.059 4.88309 21.1453C4.85118 21.2315 4.80263 21.3104 4.74025 21.3774C4.67882 21.4407 4.60504 21.4903 4.52361 21.5232C4.44218 21.556 4.35488 21.5713 4.26728 21.5681H0.662199C0.573659 21.5714 0.485434 21.5557 0.403309 21.5221C0.321185 21.4884 0.247017 21.4376 0.185671 21.3729C0.123675 21.3065 0.0753237 21.2284 0.0434258 21.143C0.0115279 21.0575 -0.00328058 20.9665 -0.000139243 20.8753ZM4.85938 14.1556C4.84313 14.9578 5.14062 15.7339 5.68708 16.3151C5.94146 16.6007 6.25318 16.828 6.60139 16.9818C6.94959 17.1356 7.32623 17.2123 7.70611 17.2068C8.08613 17.2124 8.46294 17.1358 8.81131 16.982C9.15967 16.8282 9.47154 16.6008 9.72602 16.3151C10.2575 15.7246 10.5521 14.9545 10.5521 14.1556C10.5521 13.3568 10.2575 12.5867 9.72602 11.9961C9.47154 11.7104 9.15967 11.483 8.81131 11.3292C8.46294 11.1755 8.08613 11.0988 7.70611 11.1044C7.32715 11.0985 6.95131 11.1744 6.60362 11.3271C6.25594 11.4798 5.94439 11.7057 5.68975 11.9898C5.14188 12.571 4.84338 13.348 4.85938 14.1511V14.1556Z" fill="#85B739"/>
<path d="M16.8561 20.8573V1.26872C16.8525 1.17672 16.8671 1.08493 16.899 0.998717C16.9309 0.912503 16.9795 0.8336 17.0419 0.766629C17.1034 0.702158 17.1776 0.651468 17.2597 0.617835C17.3418 0.584201 17.43 0.568373 17.5185 0.571373H21.12C21.2085 0.568485 21.2966 0.584365 21.3786 0.617991C21.4607 0.651618 21.5349 0.702248 21.5965 0.766629C21.6586 0.833816 21.7069 0.912776 21.7386 0.998952C21.7703 1.08513 21.7849 1.17681 21.7814 1.26872V20.8573C21.7848 21.0436 21.7159 21.2239 21.5894 21.3594C21.5325 21.4253 21.4622 21.478 21.3833 21.514C21.3045 21.55 21.2189 21.5685 21.1324 21.5681H17.5451C17.4547 21.5688 17.3651 21.5506 17.2818 21.5147C17.1986 21.4788 17.1236 21.4259 17.0615 21.3594C16.9953 21.2942 16.9429 21.2161 16.9076 21.1297C16.8723 21.0434 16.8548 20.9507 16.8561 20.8573Z" fill="#85B739"/>
<path d="M36.9297 19.1423C36.3655 20.0067 35.5227 20.6992 34.4013 21.2199C33.2447 21.7475 31.9883 22.0137 30.7197 22C28.4675 22 26.6203 21.2634 25.1783 19.7901C23.7363 18.3169 23.0147 16.4591 23.0135 14.2168C23.0135 11.8935 23.6909 9.99288 25.0458 8.51481C26.4008 7.03675 28.1774 6.29802 30.3757 6.29861C32.494 6.29861 34.2152 7.00705 35.5393 8.42393C36.8633 9.84081 37.5257 11.5804 37.5263 13.6427V14.4931C37.5397 14.7678 37.4703 15.0402 37.3271 15.2741C37.2653 15.3684 37.1804 15.4448 37.0807 15.4961C36.981 15.5473 36.8699 15.5716 36.7581 15.5665H27.9655C28.0733 16.214 28.4184 16.7965 28.9319 17.1978C29.444 17.5973 30.0621 17.7974 30.7864 17.798C31.2487 17.8026 31.7066 17.7075 32.1298 17.5191C32.5766 17.308 32.979 17.0117 33.3149 16.6463C33.3779 16.5648 33.4562 16.4969 33.5454 16.4465C33.6346 16.396 33.7329 16.364 33.8344 16.3524C33.9359 16.3407 34.0387 16.3497 34.1368 16.3787C34.2349 16.4076 34.3263 16.4561 34.4057 16.5212L36.7884 18.166C36.8668 18.2138 36.9334 18.2793 36.9829 18.3573C37.0323 18.4353 37.0634 18.5238 37.0738 18.6159C37.0925 18.8034 37.0411 18.9913 36.9297 19.1423ZM28.0713 12.2274H32.7459C32.6589 11.6779 32.3797 11.1784 31.9591 10.8199C31.5385 10.4615 31.0046 10.268 30.4548 10.2748C29.9026 10.2693 29.3661 10.4604 28.939 10.8147C28.4971 11.1699 28.1904 11.6691 28.0713 12.2274Z" fill="#85B739"/>
<path d="M38.851 11.3375C38.851 9.89782 39.4227 8.69809 40.566 7.73831C41.7093 6.77853 43.1824 6.29863 44.9854 6.29863C46.1575 6.29154 47.3235 6.47006 48.4411 6.82771C49.5276 7.18103 50.3484 7.62253 50.9038 8.15221C51.1598 8.37536 51.2947 8.61231 51.3083 8.86305C51.3219 9.11379 51.2093 9.38373 50.9705 9.67287L49.6591 11.1647C49.4475 11.4047 49.2202 11.5324 48.9772 11.548C48.7342 11.5636 48.4453 11.4737 48.1104 11.2781C47.5988 10.9738 47.0582 10.7224 46.4968 10.5277C46.0475 10.369 45.5759 10.2843 45.1001 10.2766C44.7886 10.2655 44.4792 10.3326 44.1995 10.4719C43.9624 10.6021 43.8439 10.7694 43.8439 10.974C43.8425 11.0604 43.8609 11.146 43.8976 11.224C43.9343 11.3021 43.9883 11.3705 44.0555 11.4239C44.1968 11.5444 44.4173 11.638 44.7178 11.7028L47.4063 12.3165C48.7648 12.6236 49.7996 13.1635 50.5108 13.9361C51.2221 14.7087 51.5777 15.6892 51.5777 16.8775C51.5777 18.4372 50.985 19.6828 49.7996 20.6144C48.6142 21.546 47.0169 22.0079 45.0077 22.0001C44.061 22 43.1188 21.8689 42.2072 21.6105C41.3517 21.38 40.5364 21.0177 39.7899 20.5361C39.0751 20.0628 38.6436 19.5913 38.4954 19.1216C38.3472 18.6519 38.4883 18.232 38.9186 17.8619L40.3757 16.6076C40.6318 16.3844 40.8745 16.2729 41.1039 16.2729C41.3332 16.2729 41.6201 16.4123 41.9645 16.6913C42.4661 17.0966 43.0208 17.4297 43.6127 17.681C44.1303 17.9041 44.6861 18.0224 45.2486 18.0293C45.654 18.0293 45.9761 17.9573 46.215 17.8133C46.4538 17.6693 46.5724 17.4858 46.5706 17.2626C46.5701 17.152 46.5427 17.0432 46.4908 16.9459C46.4388 16.8486 46.3639 16.7658 46.2728 16.7048C46.0745 16.5563 45.7713 16.4402 45.3659 16.3565L42.7308 15.7852C41.5039 15.5248 40.5506 15.0066 39.8708 14.2303C39.1909 13.4541 38.851 12.4898 38.851 11.3375Z" fill="#85B739"/>
<path d="M52.8333 11.3375C52.8333 9.89782 53.405 8.69809 54.5483 7.73831C55.6916 6.77853 57.1635 6.29863 58.9642 6.29863C60.1363 6.29154 61.3023 6.47006 62.4199 6.82771C63.5063 7.18103 64.3272 7.62253 64.8825 8.15221C65.1386 8.37536 65.2734 8.61231 65.287 8.86305C65.3007 9.11379 65.1881 9.38373 64.9492 9.67287L63.6379 11.1674C63.4263 11.4074 63.199 11.5351 62.956 11.5507C62.713 11.5663 62.424 11.4764 62.0891 11.2808C61.579 10.9758 61.0399 10.7235 60.48 10.5277C60.0307 10.369 59.5591 10.2843 59.0833 10.2766C58.7718 10.2655 58.4624 10.3326 58.1827 10.4719C57.9456 10.6021 57.8271 10.7694 57.8271 10.974C57.8257 11.0604 57.8441 11.146 57.8808 11.224C57.9175 11.3021 57.9715 11.3705 58.0387 11.4239C58.18 11.5444 58.4005 11.638 58.701 11.7028L61.3895 12.3165C62.7479 12.6236 63.7828 13.1635 64.494 13.9361C65.2052 14.7087 65.5609 15.6892 65.5609 16.8775C65.5609 18.4372 64.9682 19.6828 63.7828 20.6144C62.5974 21.546 61.0001 22.0079 58.9908 22.0001C58.0442 22 57.1019 21.8689 56.1903 21.6105C55.3349 21.38 54.5195 21.0177 53.773 20.5361C53.0582 20.0628 52.6259 19.5913 52.4759 19.1216C52.326 18.6519 52.467 18.232 52.8991 17.8619L54.3562 16.6076C54.6123 16.3844 54.855 16.2729 55.0844 16.2729C55.3137 16.2729 55.6006 16.4123 55.945 16.6913C56.4466 17.0966 57.0013 17.4297 57.5933 17.681C58.1108 17.9041 58.6666 18.0224 59.2291 18.0293C59.6345 18.0293 59.9566 17.9573 60.1955 17.8133C60.4343 17.6693 60.5529 17.4858 60.5511 17.2626C60.5506 17.152 60.5232 17.0432 60.4713 16.9459C60.4193 16.8486 60.3444 16.7658 60.2533 16.7048C60.055 16.5563 59.7519 16.4402 59.3464 16.3565L56.7113 15.7852C55.4844 15.5248 54.5311 15.0066 53.8513 14.2303C53.1714 13.4541 52.8321 12.4898 52.8333 11.3375Z" fill="#85B739"/>
<path d="M82.3085 10.8047C81.7342 10.8047 81.2796 11.0024 80.9447 11.3977C80.6098 11.793 80.4421 12.3251 80.4415 12.994V20.8753C80.445 20.9672 80.4304 21.059 80.3985 21.1452C80.3666 21.2314 80.3181 21.3103 80.2557 21.3773C80.1942 21.4419 80.12 21.4927 80.0379 21.5263C79.9558 21.5599 79.8677 21.5757 79.7792 21.5726H76.1776C76.0891 21.5757 76.0009 21.5599 75.9188 21.5263C75.8367 21.4927 75.7625 21.4419 75.7011 21.3773C75.6387 21.3103 75.5902 21.2314 75.5583 21.1452C75.5264 21.059 75.5117 20.9672 75.5153 20.8753V12.994C75.5153 12.3155 75.3475 11.781 75.0121 11.3905C74.6766 11 74.2265 10.8047 73.6616 10.8047C73.0885 10.8047 72.6339 11.0024 72.2978 11.3977C71.9618 11.793 71.794 12.3251 71.7946 12.994V20.8753C71.7983 20.9672 71.7838 21.0589 71.7521 21.1451C71.7203 21.2313 71.6719 21.3103 71.6097 21.3773C71.5481 21.442 71.4738 21.4928 71.3915 21.5264C71.3093 21.56 71.2209 21.5758 71.1323 21.5726H67.5307C67.4422 21.5757 67.3541 21.5599 67.272 21.5263C67.1899 21.4927 67.1157 21.4419 67.0542 21.3773C66.992 21.3103 66.9436 21.2313 66.9119 21.1451C66.8801 21.0589 66.8656 20.9672 66.8693 20.8753V7.41702C66.8672 7.32576 66.8832 7.23499 66.9161 7.15002C66.9491 7.06505 66.9985 6.98758 67.0613 6.92213C67.1232 6.85592 67.1982 6.80366 67.2814 6.76878C67.3646 6.73389 67.4541 6.71716 67.5441 6.71968H71.1234C71.2134 6.71722 71.3029 6.73397 71.3861 6.76885C71.4693 6.80374 71.5442 6.85596 71.6061 6.92213C71.669 6.98758 71.7184 7.06505 71.7513 7.15002C71.7843 7.23499 71.8002 7.32576 71.7982 7.41702V8.49047C72.2172 7.82461 72.7899 7.27186 73.4669 6.87984C74.1307 6.49543 74.883 6.29493 75.6477 6.29857C76.5664 6.29857 77.3544 6.48423 78.0117 6.85555C78.6723 7.23086 79.2053 7.79951 79.5409 8.48687C80.1336 7.72505 80.798 7.16987 81.5341 6.82135C82.2703 6.47283 83.1154 6.29857 84.0697 6.29857C85.6332 6.29857 86.8595 6.82945 87.7486 7.89121C88.6376 8.95297 89.0836 10.3471 89.0866 12.0735V20.8753C89.0901 20.9672 89.0755 21.059 89.0436 21.1452C89.0117 21.2314 88.9632 21.3103 88.9008 21.3773C88.8393 21.4419 88.7651 21.4927 88.683 21.5263C88.6009 21.5599 88.5128 21.5757 88.4242 21.5726H84.8245C84.736 21.5758 84.6478 21.5601 84.5656 21.5265C84.4835 21.4928 84.4093 21.442 84.348 21.3773C84.2854 21.3105 84.2368 21.2316 84.2048 21.1453C84.1729 21.0591 84.1584 20.9673 84.1622 20.8753V12.994C84.1622 12.3155 83.9944 11.781 83.659 11.3905C83.3235 11 82.8733 10.8047 82.3085 10.8047Z" fill="#85B739"/>
<path d="M95.9999 2.82991C96.0041 3.19761 95.934 3.56231 95.794 3.90163C95.6539 4.24095 95.4469 4.54774 95.1855 4.80316C94.9328 5.06575 94.6306 5.27445 94.2969 5.41695C93.9632 5.55945 93.6047 5.63287 93.2425 5.63287C92.8803 5.63287 92.5218 5.55945 92.1881 5.41695C91.8543 5.27445 91.5522 5.06575 91.2995 4.80316C91.0366 4.54854 90.8282 4.24205 90.6871 3.90264C90.5459 3.56323 90.4751 3.19813 90.4789 2.82991C90.4759 2.4598 90.547 2.09292 90.6881 1.75143C90.8291 1.40995 91.0371 1.10096 91.2995 0.84316C91.55 0.576719 91.8514 0.364585 92.1854 0.219634C92.5194 0.0746831 92.8791 -6.10352e-05 93.2425 -6.10352e-05C93.6059 -6.10352e-05 93.9655 0.0746831 94.2995 0.219634C94.6335 0.364585 94.935 0.576719 95.1855 0.84316C95.4462 1.10191 95.6527 1.41121 95.7926 1.75257C95.9326 2.09394 96.003 2.46035 95.9999 2.82991ZM95.6958 7.41887V20.8753C95.698 20.9666 95.6821 21.0574 95.6491 21.1424C95.6161 21.2273 95.5667 21.3048 95.5038 21.3702C95.4417 21.4364 95.3666 21.4887 95.2833 21.5236C95.1999 21.5585 95.1103 21.5752 95.0201 21.5726H91.4453C91.3551 21.5752 91.2655 21.5585 91.1822 21.5236C91.0988 21.4887 91.0237 21.4364 90.9617 21.3702C90.899 21.3047 90.8499 21.2271 90.8173 21.1422C90.7846 21.0572 90.769 20.9665 90.7714 20.8753V7.41707C90.7693 7.3258 90.7853 7.23504 90.8182 7.15007C90.8512 7.0651 90.9006 6.98763 90.9634 6.92218C91.0255 6.85594 91.1006 6.80368 91.1839 6.7688C91.2673 6.73391 91.3569 6.71719 91.4471 6.71972H95.0219C95.112 6.71719 95.2017 6.73391 95.285 6.7688C95.3684 6.80368 95.4435 6.85594 95.5055 6.92218C95.5681 6.98778 95.6171 7.06532 95.6498 7.15028C95.6825 7.23524 95.6981 7.32593 95.6958 7.41707V7.41887Z" fill="#85B739"/>
</svg>
