<svg width="42" height="25" viewBox="0 0 42 25" fill="none" xmlns="http://www.w3.org/2000/svg">
<g clip-path="url(#clip0_1_61)">
<path d="M41.7246 12.5694C41.7265 19.3661 36.1741 24.8769 29.3231 24.8787C22.4719 24.8804 16.9171 19.3724 16.9153 12.5757C16.9153 12.5735 16.9153 12.5717 16.9153 12.5694C16.9135 5.77291 22.4659 0.261801 29.3167 0.259995C36.1678 0.258189 41.7228 5.76652 41.7246 12.5632C41.7246 12.5653 41.7246 12.5672 41.7246 12.5694Z" fill="#FF9900"/>
<path d="M12.6001 0.264764C5.78966 0.30768 0.275345 5.80449 0.275345 12.571C0.275345 19.3639 5.83264 24.8771 12.68 24.8771C15.8937 24.8771 18.8231 23.6621 21.0274 21.6707C21.0273 21.6707 21.027 21.6705 21.0264 21.6702H21.0291C21.4804 21.2621 21.9014 20.8218 22.2884 20.3524H19.747C19.4076 19.9457 19.0992 19.522 18.8221 19.0848H23.2052C23.4718 18.6616 23.7132 18.2221 23.9274 17.767H18.0985C17.8998 17.3445 17.7273 16.9124 17.58 16.4741H24.4463C24.8602 15.2474 25.0847 13.935 25.0847 12.5709C25.0847 11.6664 24.9859 10.7846 24.7989 9.9356H17.2159C17.3098 9.49865 17.4284 9.06699 17.5698 8.64282H24.4386C24.2851 8.19143 24.1067 7.75157 23.9038 7.32518H18.0978C18.3072 6.88129 18.5445 6.44949 18.8095 6.03254H23.1894C22.8979 5.57185 22.5754 5.13171 22.2266 4.71476H19.7846C20.1622 4.27393 20.5779 3.85879 21.0291 3.47171C18.8246 1.48004 15.8944 0.264764 12.68 0.264764C12.6533 0.264764 12.6268 0.264625 12.6001 0.264764Z" fill="#CC0000"/>
<path d="M40.48 19.0028C40.5475 19.0028 40.6132 19.0202 40.6773 19.0543C40.7417 19.0885 40.7912 19.1378 40.8271 19.2018C40.8629 19.2652 40.8808 19.332 40.8808 19.4011C40.8808 19.4695 40.8631 19.5356 40.8278 19.5989C40.7926 19.6621 40.7431 19.7114 40.6792 19.7465C40.6161 19.7811 40.5493 19.7986 40.4799 19.7986C40.4104 19.7986 40.3438 19.7811 40.2802 19.7465C40.2165 19.7113 40.1673 19.6622 40.1314 19.5989C40.0961 19.5356 40.0786 19.4695 40.0786 19.4011C40.0786 19.332 40.0964 19.2652 40.1324 19.2018C40.1685 19.1378 40.2184 19.0889 40.2823 19.0543C40.347 19.0202 40.4127 19.0028 40.48 19.0028ZM40.48 19.0688C40.4239 19.0688 40.369 19.0832 40.3154 19.112C40.2622 19.1407 40.2206 19.1814 40.1906 19.2353C40.1603 19.2883 40.1451 19.3433 40.1451 19.4011C40.1451 19.4583 40.16 19.5136 40.1892 19.5661C40.2192 19.6185 40.2606 19.6596 40.3136 19.689C40.3669 19.7183 40.4222 19.7328 40.4799 19.7328C40.5378 19.7328 40.5933 19.7183 40.6463 19.689C40.6993 19.6596 40.7406 19.6185 40.7701 19.5661C40.7994 19.5136 40.8139 19.4585 40.8139 19.4011C40.8139 19.3433 40.7991 19.2882 40.769 19.2353C40.7392 19.1814 40.6974 19.1407 40.6438 19.112C40.5908 19.0831 40.5362 19.0688 40.48 19.0688ZM40.3042 19.6208V19.1928H40.4529C40.5033 19.1928 40.5399 19.1967 40.5626 19.205C40.5853 19.2129 40.6034 19.2264 40.6169 19.2463C40.6302 19.2658 40.6371 19.2867 40.6371 19.3089C40.6371 19.3403 40.6259 19.3675 40.6032 19.3906C40.5811 19.4136 40.551 19.4268 40.5138 19.4296C40.529 19.4358 40.5412 19.4438 40.5507 19.4524C40.5682 19.469 40.5892 19.4972 40.6144 19.5371L40.6669 19.6208H40.5821L40.544 19.5535C40.5139 19.5004 40.4897 19.4674 40.4711 19.4538C40.4583 19.4442 40.4397 19.4392 40.4155 19.4392H40.3745V19.6213H40.3045L40.3042 19.6208ZM40.3739 19.3799H40.4585C40.4988 19.3799 40.5261 19.3738 40.5408 19.362C40.5556 19.3497 40.563 19.3342 40.563 19.3145C40.563 19.3017 40.5597 19.2903 40.5525 19.2806C40.5453 19.2704 40.5355 19.2632 40.5227 19.2581C40.5103 19.2532 40.487 19.2504 40.4531 19.2504H40.3742V19.3799" fill="#FCB340"/>
<path d="M16.7967 16.1L16.9619 14.9861C16.8716 14.9861 16.7389 15.0248 16.6216 15.0248C16.1618 15.0248 16.1044 14.7811 16.1405 14.603L16.5936 12.3627H17.2924L17.4365 11.0984H16.7778L16.9119 10.3323H15.534C15.5049 10.3612 14.7545 14.6409 14.7545 15.1623C14.7545 15.9338 15.191 16.2772 15.8068 16.2718C16.2886 16.2677 16.6643 16.1354 16.7967 16.1Z" fill="#000066"/>
<path d="M17.2146 13.9766C17.2146 15.8283 18.4465 16.2682 19.4962 16.2682C20.4651 16.2682 20.9732 16.0454 20.9732 16.0454L21.2059 14.7815C21.2059 14.7815 20.3872 15.1118 19.7217 15.1118C18.3034 15.1118 18.552 14.0626 18.552 14.0626L21.2769 14.0708C21.2769 14.0708 21.4503 13.2221 21.4503 12.8761C21.4503 12.0126 20.9761 10.9526 19.526 10.9526C18.198 10.9529 17.2146 12.3725 17.2146 13.9766ZM19.5311 12.1259C20.2764 12.1259 20.1389 12.9571 20.1389 13.0244H18.6726C18.6726 12.9383 18.811 12.1259 19.5311 12.1259Z" fill="#000066"/>
<path d="M27.8944 16.0995L28.1309 14.6712C28.1309 14.6712 27.4824 14.9936 27.0379 14.9936C26.1009 14.9936 25.725 14.2838 25.725 13.5212C25.725 11.9744 26.5311 11.1233 27.4285 11.1233C28.1016 11.1233 28.6416 11.4982 28.6416 11.4982L28.8572 10.1102C28.8572 10.1102 28.2196 9.65343 27.5334 9.65079C25.4691 9.64274 24.2879 11.0686 24.2879 13.5334C24.2879 15.1672 25.1626 16.279 26.7387 16.279C27.1843 16.279 27.8944 16.0995 27.8944 16.0995Z" fill="#000066"/>
<path d="M9.53215 10.973C8.62649 10.973 7.93237 11.2618 7.93237 11.2618L7.74057 12.3905C7.74057 12.3905 8.31359 12.1595 9.17991 12.1595C9.67173 12.1595 10.0315 12.2144 10.0315 12.6109C10.0315 12.8518 9.98757 12.9406 9.98757 12.9406C9.98757 12.9406 9.59949 12.9086 9.41973 12.9086C8.13033 12.9086 7.07767 13.3922 7.07767 14.8502C7.07767 15.9993 7.86489 16.2627 8.35279 16.2627C9.28477 16.2627 9.65367 15.679 9.67495 15.6773L9.66417 16.1618C9.66417 16.1618 10.827 16.1618 10.8271 16.1618L11.346 12.5534C11.346 11.0222 9.99975 10.973 9.53215 10.973ZM9.73347 13.903C9.75881 14.1233 9.67607 15.1649 8.88059 15.1649C8.47039 15.1649 8.36385 14.8538 8.36385 14.6702C8.36385 14.3113 8.56027 13.8809 9.52795 13.8809C9.75335 13.8809 9.69553 13.897 9.73347 13.903Z" fill="#000066"/>
<path d="M12.5819 16.2361C12.8794 16.2361 14.58 16.3112 14.58 14.5702C14.58 12.9423 13.0058 13.2641 13.0058 12.61C13.0058 12.2847 13.2624 12.1822 13.7316 12.1822C13.9176 12.1822 14.6341 12.2409 14.6341 12.2409L14.8006 11.084C14.8006 11.0841 14.3369 10.9811 13.582 10.9811C12.605 10.9811 11.6132 11.368 11.6132 12.6919C11.6132 14.1922 13.2669 14.0415 13.2669 14.6734C13.2669 15.0952 12.8049 15.13 12.4487 15.13C11.8326 15.13 11.2779 14.9201 11.276 14.9302L11.0997 16.0754C11.1318 16.0851 11.4741 16.2361 12.5819 16.2361Z" fill="#000066"/>
<path d="M38.7887 9.92342L38.55 11.6886C38.55 11.6886 38.0526 11.0073 37.2744 11.0073C35.8101 11.0073 35.0555 12.455 35.0555 14.1179C35.0555 15.1915 35.5937 16.2438 36.6934 16.2438C37.4845 16.2438 37.9231 15.6965 37.9231 15.6965L37.865 16.1638H39.1499L40.1589 9.93301L38.7887 9.92342ZM38.2215 13.3541C38.2215 14.0462 37.876 14.9708 37.1601 14.9708C36.6847 14.9708 36.4618 14.5748 36.4618 13.9536C36.4618 12.9376 36.9217 12.2675 37.5023 12.2675C37.9774 12.2675 38.2215 12.5911 38.2215 13.3541Z" fill="#000066"/>
<path d="M2.38074 16.169L3.18476 11.4648L3.30292 16.169H4.21278L5.91028 11.4648L5.15834 16.169H6.51046L7.55164 9.92983L5.40376 9.91358L4.12612 13.7336L4.09112 9.92983H2.12272L1.06656 16.169H2.38074Z" fill="#000066"/>
<path d="M22.7298 16.1779C23.1143 14.0091 23.2512 12.2963 24.3723 12.6511C24.5333 11.8116 24.917 11.0816 25.0923 10.7263C25.0923 10.7263 25.0369 10.6445 24.6904 10.6445C24.0989 10.6445 23.3091 11.8354 23.3091 11.8354L23.4272 11.0991H22.1971L21.3734 16.1777H22.7298V16.1779Z" fill="#000066"/>
<path d="M30.6607 10.973C29.7546 10.973 29.0605 11.2618 29.0605 11.2618L28.8688 12.3905C28.8688 12.3905 29.4421 12.1595 30.308 12.1595C30.8 12.1595 31.1597 12.2144 31.1597 12.6109C31.1597 12.8518 31.1158 12.9406 31.1158 12.9406C31.1158 12.9406 30.7279 12.9086 30.5481 12.9086C29.2586 12.9086 28.2061 13.3922 28.2061 14.8502C28.2061 15.9993 28.9932 16.2627 29.4811 16.2627C30.4128 16.2627 30.7819 15.679 30.8031 15.6773L30.7922 16.1618H31.9554L32.4741 12.5534C32.4743 11.0222 31.128 10.973 30.6607 10.973ZM30.8617 13.903C30.8869 14.1233 30.8042 15.1649 30.0089 15.1649C29.5984 15.1649 29.492 14.8538 29.492 14.6702C29.492 14.3113 29.6883 13.8809 30.6561 13.8809C30.8816 13.8809 30.8239 13.897 30.8617 13.903Z" fill="#000066"/>
<path d="M33.8132 16.1779C34.0244 14.5823 34.4151 12.3423 35.4556 12.6511C35.6164 11.8116 35.4613 11.8138 35.115 11.8138C34.523 11.8138 34.392 11.8352 34.392 11.8352L34.5102 11.099H33.2803L32.4565 16.1777H33.8132V16.1779Z" fill="#000066"/>
<path d="M17.1407 15.7026L17.306 14.5889C17.2157 14.5889 17.0828 14.6272 16.9657 14.6272C16.5059 14.6272 16.4552 14.3847 16.4845 14.2054L16.8559 11.9329H17.5546L17.7233 10.7009H17.0645L17.1986 9.93483H15.8779C15.8487 9.96372 15.0982 14.2436 15.0982 14.7647C15.0982 15.5362 15.5349 15.8798 16.1506 15.8743C16.6327 15.8702 17.0082 15.7379 17.1407 15.7026Z" fill="white"/>
<path d="M17.5592 13.5792C17.5592 15.4308 18.7912 15.8708 19.8408 15.8708C20.8096 15.8708 21.2359 15.656 21.2359 15.656L21.4686 14.3922C21.4686 14.3922 20.7316 14.7143 20.066 14.7143C18.6478 14.7143 18.8962 13.6653 18.8962 13.6653H21.5803C21.5803 13.6653 21.7536 12.8162 21.7536 12.4703C21.7536 11.6069 21.3204 10.555 19.8703 10.555C18.5423 10.5553 17.5592 11.9748 17.5592 13.5792ZM19.8754 11.7285C20.6207 11.7285 20.4832 12.5594 20.4832 12.6267H19.0169C19.0169 12.5408 19.1555 11.7285 19.8754 11.7285Z" fill="white"/>
<path d="M28.2389 15.7021L28.4752 14.2736C28.4752 14.2736 27.8272 14.596 27.3824 14.596C26.4455 14.596 26.0698 13.8862 26.0698 13.1237C26.0698 11.5769 26.8759 10.726 27.7733 10.726C28.4463 10.726 28.9864 11.1008 28.9864 11.1008L29.202 9.7129C29.202 9.7129 28.401 9.39137 27.7145 9.39137C26.1897 9.39137 24.7065 10.7036 24.7065 13.168C24.7065 14.8022 25.5074 15.8815 27.0835 15.8815C27.5291 15.8817 28.2389 15.7021 28.2389 15.7021Z" fill="white"/>
<path d="M9.87648 10.5754C8.97082 10.5754 8.27656 10.8641 8.27656 10.8641L8.0849 11.9929C8.0849 11.9929 8.65792 11.7619 9.5241 11.7619C10.0159 11.7619 10.3757 11.8168 10.3757 12.2133C10.3757 12.4541 10.3316 12.543 10.3316 12.543C10.3316 12.543 9.94368 12.5108 9.76406 12.5108C8.6218 12.5108 7.42186 12.9944 7.42186 14.4525C7.42186 15.6014 8.20908 15.865 8.69698 15.865C9.62882 15.865 10.0305 15.2651 10.0519 15.2633L10.0084 15.764H11.1713L11.6902 12.1555C11.6902 10.6247 10.3441 10.5754 9.87648 10.5754ZM10.1594 13.5135C10.1846 13.7339 10.0201 14.7671 9.22492 14.7671C8.81472 14.7671 8.70804 14.4562 8.70804 14.2723C8.70804 13.9137 8.90446 13.4832 9.87228 13.4832C10.0974 13.4835 10.1215 13.5073 10.1594 13.5135Z" fill="white"/>
<path d="M12.9263 15.8386C13.2238 15.8386 14.9245 15.9136 14.9245 14.1726C14.9245 12.545 13.3502 12.8665 13.3502 12.2126C13.3502 11.8871 13.6069 11.7846 14.0759 11.7846C14.2621 11.7846 14.9784 11.8433 14.9784 11.8433L15.145 10.6864C15.145 10.6865 14.6814 10.5835 13.9265 10.5835C12.9494 10.5835 11.9577 10.9704 11.9577 12.2943C11.9577 13.7944 13.6113 13.6439 13.6113 14.2758C13.6113 14.6976 13.1493 14.7319 12.7933 14.7319C12.1772 14.7319 11.6224 14.5222 11.6204 14.5322L11.4443 15.6775C11.4762 15.6872 11.8184 15.8386 12.9263 15.8386Z" fill="white"/>
<path d="M39.1791 9.53719L38.8942 11.2909C38.8942 11.2909 38.397 10.6097 37.6188 10.6097C36.4086 10.6097 35.3999 12.0572 35.3999 13.7204C35.3999 14.794 35.9379 15.8459 37.0378 15.8459C37.8289 15.8459 38.2675 15.2987 38.2675 15.2987L38.2094 15.7661H39.4941L40.5031 9.53511L39.1791 9.53719ZM38.5657 12.9566C38.5657 13.6487 38.2204 14.5732 37.5043 14.5732C37.029 14.5732 36.8062 14.1773 36.8062 13.5561C36.8062 12.5403 37.2661 11.87 37.8464 11.87C38.3219 11.8698 38.5657 12.1939 38.5657 12.9566Z" fill="white"/>
<path d="M2.72521 15.7715L3.52923 11.0673L3.64725 15.7715H4.55725L6.25475 11.0673L5.50281 15.7715H6.85493L7.89625 9.5322H5.80535L4.50321 13.3604L4.43545 9.5322H2.50807L1.45177 15.7715H2.72521Z" fill="white"/>
<path d="M23.0745 15.7801C23.459 13.6112 23.5302 11.8501 24.4476 12.1725C24.6082 11.333 24.7632 11.0083 24.9385 10.653C24.9385 10.653 24.8563 10.636 24.6838 10.636C24.0923 10.636 23.6541 11.4376 23.6541 11.4376L23.7719 10.7014H22.5421L21.7182 15.7801H23.0745Z" fill="white"/>
<path d="M31.2866 10.5754C30.3809 10.5754 29.6867 10.8641 29.6867 10.8641L29.4952 11.9929C29.4952 11.9929 30.0682 11.7619 30.9344 11.7619C31.4262 11.7619 31.7857 11.8168 31.7857 12.2133C31.7857 12.4541 31.7419 12.543 31.7419 12.543C31.7419 12.543 31.3539 12.5108 31.1742 12.5108C30.0321 12.5108 28.8321 12.9944 28.8321 14.4525C28.8321 15.6014 29.6192 15.865 30.1071 15.865C31.0389 15.865 31.4406 15.2651 31.4619 15.2633L31.4186 15.764C31.4186 15.764 32.5812 15.764 32.5816 15.764L33.1003 12.1555C33.1004 10.6247 31.7542 10.5754 31.2866 10.5754ZM31.57 13.5135C31.5952 13.7339 31.4305 14.7671 30.635 14.7671C30.2248 14.7671 30.1184 14.4562 30.1184 14.2723C30.1184 13.9137 30.3149 13.4832 31.2825 13.4832C31.5077 13.4835 31.5316 13.5073 31.57 13.5135Z" fill="white"/>
<path d="M34.1632 15.7801C34.5478 13.6112 34.619 11.8501 35.5362 12.1725C35.697 11.333 35.8522 11.0083 36.0273 10.653C36.0273 10.653 35.9451 10.636 35.7726 10.636C35.1811 10.636 34.7429 11.4376 34.7429 11.4376L34.8607 10.7014H33.6309L32.807 15.7801H34.1632Z" fill="white"/>
<path d="M40.4746 14.9965C40.5417 14.9965 40.6078 15.0136 40.6715 15.0483C40.7357 15.0819 40.7857 15.1314 40.8216 15.1954C40.8575 15.259 40.8752 15.3253 40.8752 15.3946C40.8752 15.4631 40.8575 15.5292 40.8221 15.5924C40.787 15.6555 40.7376 15.7051 40.6739 15.74C40.6103 15.7747 40.5437 15.7922 40.4745 15.7922C40.4048 15.7922 40.3381 15.7747 40.2744 15.74C40.2109 15.7049 40.1616 15.6555 40.1263 15.5924C40.0905 15.5292 40.073 15.4631 40.073 15.3946C40.073 15.3253 40.0907 15.259 40.1267 15.1954C40.1628 15.1314 40.213 15.0822 40.2769 15.0483C40.3415 15.0136 40.4076 14.9965 40.4746 14.9965ZM40.4746 15.0621C40.4185 15.0621 40.3636 15.0765 40.31 15.1055C40.2565 15.1339 40.2149 15.1749 40.1848 15.2285C40.1549 15.2814 40.1398 15.3368 40.1398 15.3943C40.1398 15.4518 40.1543 15.5068 40.1836 15.5593C40.2134 15.6117 40.2548 15.6528 40.3083 15.6824C40.3612 15.7112 40.4165 15.7258 40.4746 15.7258C40.5323 15.7258 40.588 15.7112 40.641 15.6824C40.6939 15.6528 40.7353 15.6117 40.7647 15.5593C40.7943 15.5064 40.8087 15.4518 40.8087 15.3943C40.8087 15.3368 40.7937 15.2814 40.7637 15.2285C40.7339 15.1749 40.6923 15.1339 40.6386 15.1055C40.5854 15.0767 40.5309 15.0621 40.4746 15.0621ZM40.2989 15.6143V15.1861H40.4475C40.498 15.1861 40.535 15.1901 40.5574 15.1983C40.5801 15.206 40.5978 15.2197 40.6117 15.2396C40.6253 15.2593 40.6321 15.28 40.6321 15.3022C40.6321 15.3335 40.6207 15.3608 40.598 15.3839C40.5759 15.4069 40.546 15.4203 40.5088 15.4228C40.5236 15.4292 40.536 15.4368 40.5455 15.4454C40.5627 15.4624 40.584 15.4907 40.6092 15.5303L40.662 15.6142H40.5767L40.5388 15.5468C40.5085 15.4936 40.4843 15.4605 40.4658 15.4471C40.4531 15.4372 40.4345 15.4324 40.41 15.4324H40.3692V15.6144L40.2989 15.6143ZM40.3686 15.3733H40.4532C40.4937 15.3733 40.521 15.3674 40.5355 15.3554C40.5502 15.3437 40.5579 15.3278 40.5579 15.3079C40.5579 15.2953 40.5544 15.2839 40.5474 15.2743C40.5403 15.264 40.5304 15.2567 40.5176 15.2515C40.5049 15.2467 40.4821 15.2442 40.4479 15.2442H40.3688V15.3733" fill="white"/>
</g>
<defs>
<clipPath id="clip0_1_61">
<rect width="42" height="25" fill="white"/>
</clipPath>
</defs>
</svg>
