<svg width="161" height="43" viewBox="0 0 161 43" fill="none" xmlns="http://www.w3.org/2000/svg">
<path d="M59.9997 8.79419H51.12C50.5124 8.79419 49.9956 9.23722 49.9008 9.83922L46.3095 32.6905C46.2381 33.1413 46.586 33.5479 47.0418 33.5479H51.281C51.8887 33.5479 52.4054 33.1048 52.5002 32.5015L53.4688 26.3382C53.5623 25.7349 54.0803 25.2919 54.6867 25.2919H57.4977C63.3469 25.2919 66.7227 22.4512 67.6043 16.8222C68.0016 14.3594 67.6212 12.4244 66.4721 11.0693C65.2101 9.58122 62.9717 8.79419 59.9997 8.79419ZM61.0241 17.1401C60.5385 20.3377 58.104 20.3377 55.7501 20.3377H54.4101L55.3502 14.3659C55.406 14.005 55.7176 13.7392 56.0812 13.7392H56.6953C58.2988 13.7392 59.8114 13.7392 60.593 14.6565C61.0592 15.2038 61.202 16.0169 61.0241 17.1401Z" fill="#253B80"/>
<path d="M86.543 17.0371H82.2908C81.9286 17.0371 81.6157 17.3029 81.5598 17.6638L81.3716 18.8574L81.0742 18.4248C80.1537 17.084 78.1009 16.6358 76.0521 16.6358C71.3532 16.6358 67.3399 20.2074 66.5583 25.2175C66.1519 27.7167 66.7297 30.1065 68.1423 31.7731C69.4381 33.3054 71.2922 33.9439 73.4981 33.9439C77.2842 33.9439 79.3837 31.5007 79.3837 31.5007L79.1942 32.6865C79.1228 33.1399 79.4707 33.5465 79.9239 33.5465H83.7541C84.363 33.5465 84.8772 33.1035 84.9733 32.5002L87.2714 17.8945C87.3441 17.4449 86.9975 17.0371 86.543 17.0371ZM80.6159 25.3426C80.2056 27.7806 78.2775 29.4172 75.8184 29.4172C74.5836 29.4172 73.5968 29.0198 72.9632 28.2666C72.3348 27.5187 72.0959 26.4541 72.2958 25.2683C72.6789 22.8512 74.6394 21.1612 77.0609 21.1612C78.2684 21.1612 79.25 21.5638 79.8966 22.3235C80.5445 23.091 80.8016 24.1621 80.6159 25.3426Z" fill="#253B80"/>
<path d="M109.189 17.0371H104.916C104.509 17.0371 104.126 17.2404 103.895 17.5805L98.0012 26.2926L95.5031 17.9206C95.346 17.3968 94.8643 17.0371 94.3189 17.0371H90.12C89.6097 17.0371 89.2552 17.5375 89.4175 18.0196L94.1242 31.8813L89.6993 38.1501C89.3513 38.644 89.7019 39.3229 90.303 39.3229H94.5708C94.9759 39.3229 95.3551 39.1248 95.5849 38.7912L109.797 18.2033C110.137 17.7108 109.788 17.0371 109.189 17.0371Z" fill="#253B80"/>
<path d="M123.336 8.79419H114.456C113.849 8.79419 113.332 9.23722 113.238 9.83922L109.646 32.6905C109.575 33.1413 109.923 33.5479 110.376 33.5479H114.933C115.357 33.5479 115.719 33.2377 115.785 32.8155L116.804 26.3382C116.898 25.7349 117.416 25.2919 118.022 25.2919H120.832C126.682 25.2919 130.057 22.4512 130.94 16.8222C131.338 14.3594 130.955 12.4244 129.806 11.0693C128.546 9.58122 126.308 8.79419 123.336 8.79419ZM124.361 17.1401C123.877 20.3377 121.442 20.3377 119.087 20.3377H117.748L118.69 14.3659C118.745 14.005 119.054 13.7392 119.419 13.7392H120.033C121.636 13.7392 123.15 13.7392 123.931 14.6565C124.397 15.2038 124.539 16.0169 124.361 17.1401Z" fill="#179BD7"/>
<path d="M149.878 17.0371H145.628C145.263 17.0371 144.953 17.3029 144.898 17.6638L144.71 18.8574L144.411 18.4248C143.491 17.084 141.439 16.6358 139.391 16.6358C134.692 16.6358 130.68 20.2074 129.898 25.2175C129.493 27.7167 130.068 30.1065 131.481 31.7731C132.779 33.3054 134.631 33.9439 136.837 33.9439C140.623 33.9439 142.722 31.5007 142.722 31.5007L142.533 32.6865C142.461 33.1399 142.809 33.5465 143.265 33.5465H147.094C147.7 33.5465 148.217 33.1035 148.312 32.5002L150.611 17.8945C150.681 17.4449 150.333 17.0371 149.878 17.0371ZM143.951 25.3426C143.543 27.7806 141.612 29.4172 139.153 29.4172C137.921 29.4172 136.931 29.0198 136.298 28.2666C135.669 27.5187 135.433 26.4541 135.63 25.2683C136.016 22.8512 137.974 21.1612 140.396 21.1612C141.603 21.1612 142.585 21.5638 143.231 22.3235C143.882 23.091 144.139 24.1621 143.951 25.3426Z" fill="#179BD7"/>
<path d="M154.891 9.42094L151.247 32.6905C151.175 33.1413 151.523 33.5479 151.976 33.5479H155.64C156.249 33.5479 156.766 33.1048 156.859 32.5015L160.453 9.65158C160.525 9.20073 160.177 8.79288 159.724 8.79288H155.621C155.259 8.79418 154.947 9.06 154.891 9.42094Z" fill="#179BD7"/>
<path d="M9.43395 37.9885L10.113 33.6599L8.60038 33.6247H1.37746L6.39702 1.68352C6.4126 1.58709 6.46324 1.49718 6.53725 1.43334C6.61125 1.36949 6.70604 1.3343 6.80472 1.3343H18.9836C23.0268 1.3343 25.817 2.17867 27.2738 3.84524C27.9567 4.62706 28.3917 5.44406 28.602 6.34315C28.8228 7.28655 28.8267 8.41367 28.6111 9.78837L28.5955 9.8887V10.7695L29.2785 11.1578C29.8537 11.4641 30.3107 11.8146 30.6613 12.2159C31.2456 12.8844 31.6234 13.7339 31.7831 14.7412C31.948 15.7771 31.8934 17.0098 31.6234 18.4053C31.3118 20.0106 30.808 21.4088 30.1276 22.5529C29.5018 23.607 28.7046 24.4813 27.7581 25.1589C26.8544 25.8026 25.7806 26.2912 24.5666 26.604C23.3903 26.9115 22.0491 27.0665 20.578 27.0665H19.6302C18.9524 27.0665 18.2941 27.3115 17.7774 27.7506C17.2593 28.1989 16.9166 28.8113 16.8114 29.4811L16.74 29.8707L15.5403 37.4999L15.4857 37.7801C15.4714 37.8687 15.4468 37.913 15.4104 37.9429C15.378 37.9703 15.3312 37.9885 15.2858 37.9885H9.43395Z" fill="#253B80"/>
<path d="M29.9254 9.99034C29.8891 10.2236 29.8475 10.462 29.8008 10.707C28.1947 18.9825 22.6999 21.8414 15.6821 21.8414H12.109C11.2507 21.8414 10.5275 22.4669 10.3938 23.3164L8.56436 34.9603L8.0463 38.2609C7.95931 38.8186 8.38778 39.3215 8.94868 39.3215H15.2861C16.0366 39.3215 16.6741 38.7743 16.7922 38.0315L16.8546 37.7084L18.0478 30.1091L18.1244 29.6922C18.2412 28.9468 18.88 28.3995 19.6305 28.3995H20.5783C26.7184 28.3995 31.525 25.8977 32.9299 18.6581C33.5168 15.6338 33.2129 13.1085 31.6601 11.3325C31.1901 10.7969 30.6071 10.3526 29.9254 9.99034Z" fill="#179BD7"/>
<path d="M28.2452 9.31794C27.9998 9.24627 27.7466 9.18112 27.4869 9.12249C27.226 9.06515 26.9585 9.01433 26.6832 8.97003C25.7198 8.81367 24.6642 8.7394 23.5333 8.7394H13.9876C13.7526 8.7394 13.5293 8.79282 13.3293 8.88924C12.8892 9.10164 12.562 9.51991 12.4828 10.032L10.4521 22.9398L10.3937 23.3164C10.5274 22.4668 11.2506 21.8414 12.1088 21.8414H15.682C22.6998 21.8414 28.1945 18.9812 29.8006 10.707C29.8487 10.462 29.8889 10.2235 29.9253 9.9903C29.5189 9.774 29.0787 9.58897 28.6048 9.4313C28.488 9.39221 28.3672 9.35443 28.2452 9.31794Z" fill="#222D65"/>
<path d="M12.4827 10.032C12.5619 9.51994 12.8891 9.10167 13.3292 8.89058C13.5305 8.79415 13.7525 8.74073 13.9875 8.74073H23.5333C24.6642 8.74073 25.7198 8.815 26.6832 8.97136C26.9584 9.01567 27.2259 9.06649 27.4869 9.12382C27.7465 9.18246 27.9997 9.24761 28.2451 9.31927C28.3672 9.35576 28.4879 9.39355 28.6061 9.43133C29.08 9.589 29.5201 9.77533 29.9265 9.99033C30.4043 6.93212 29.9226 4.84988 28.275 2.96439C26.4585 0.888667 23.1801 0 18.985 0H6.80615C5.94921 0 5.21822 0.625455 5.08578 1.47633L0.0129846 33.7459C-0.0869912 34.3844 0.403799 34.9603 1.0452 34.9603H8.56416L10.452 22.9398L12.4827 10.032Z" fill="#253B80"/>
</svg>
