<svg width="16" height="16" viewBox="0 0 16 16" fill="none" xmlns="http://www.w3.org/2000/svg">
<path fill-rule="evenodd" clip-rule="evenodd" d="M0.666687 1.33333C0.666687 0.965145 0.965164 0.666668 1.33335 0.666668H8.00002C8.17683 0.666668 8.3464 0.736906 8.47142 0.86193L14.1995 6.59C14.572 6.96473 14.7811 7.47163 14.7811 8C14.7811 8.52837 14.572 9.03528 14.1995 9.41L13.7267 8.94L14.1981 9.4114L9.41835 14.1911C9.41827 14.1912 9.41844 14.1911 9.41835 14.1911C9.23266 14.377 9.01192 14.5247 8.76923 14.6253C8.52644 14.7259 8.26618 14.7777 8.00335 14.7777C7.74052 14.7777 7.48027 14.7259 7.23747 14.6253C6.99474 14.5246 6.77421 14.3772 6.58849 14.1913C6.58845 14.1912 6.58854 14.1913 6.58849 14.1913L0.862224 8.47168C0.737032 8.34663 0.666687 8.17695 0.666687 8V1.33333ZM13.2539 8.47C13.2541 8.4698 13.2543 8.46959 13.2545 8.46938C13.3783 8.34454 13.4477 8.17584 13.4477 8C13.4477 7.82417 13.3783 7.65546 13.2545 7.53062C13.2543 7.53041 13.2541 7.53021 13.2539 7.53L7.72388 2H2.00002V7.72363L7.53115 13.2483L7.53169 13.2489C7.5936 13.3108 7.66713 13.36 7.74806 13.3936C7.82899 13.4271 7.91574 13.4444 8.00335 13.4444C8.09097 13.4444 8.17772 13.4271 8.25865 13.3936C8.33958 13.36 8.4131 13.3108 8.47502 13.2489L13.2539 8.47Z" fill="black"/>
</svg>
