<svg width="42" height="26" viewBox="0 0 42 26" fill="none" xmlns="http://www.w3.org/2000/svg">
<g clip-path="url(#clip0_1_55)">
<path d="M8.21013 0.000671387H18.6738C20.1344 0.000671387 21.0429 1.17988 20.7022 2.6314L15.8306 23.3478C15.4868 24.7943 14.0244 25.9745 12.5627 25.9745H2.10005C0.641459 25.9745 -0.269047 24.7943 0.0716913 23.3478L4.94532 2.6314C5.28606 1.17988 6.74771 0.000671387 8.21013 0.000671387Z" fill="#E21836"/>
<path d="M17.8027 9.15527e-05H29.8357C31.2961 9.15527e-05 30.6375 1.1793 30.294 2.63082L25.4232 23.3472C25.0814 24.7937 25.188 25.9739 23.7246 25.9739H11.6916C10.2282 25.9739 9.32254 24.7937 9.66634 23.3472L14.5369 2.63082C14.8827 1.1793 16.3413 9.15527e-05 17.8027 9.15527e-05Z" fill="#00447C"/>
<path d="M29.3586 9.15527e-05H39.8222C41.2849 9.15527e-05 42.1934 1.1793 41.8498 2.63082L36.979 23.3472C36.6352 24.7937 35.1718 25.9739 33.7093 25.9739H23.2505C21.7871 25.9739 20.8794 24.7937 21.2222 23.3472L26.0937 2.63082C26.4345 1.1793 27.8951 9.15527e-05 29.3586 9.15527e-05Z" fill="#007B84"/>
<path d="M10.9426 6.63911C9.86655 6.64997 9.54877 6.63911 9.44726 6.61536C9.40824 6.79901 8.68213 10.1166 8.68009 10.1194C8.52375 10.7906 8.41 11.269 8.02361 11.578C7.80427 11.7576 7.54821 11.8442 7.25134 11.8442C6.77415 11.8442 6.49615 11.6096 6.44948 11.1644L6.44055 11.0116C6.44055 11.0116 6.58593 10.1126 6.58593 10.1075C6.58593 10.1075 7.348 7.08422 7.48445 6.68458C7.49159 6.66185 7.49363 6.64997 7.49541 6.63911C6.01208 6.65199 5.74913 6.63911 5.73102 6.61536C5.72108 6.64795 5.68435 6.83539 5.68435 6.83539L4.90621 10.2429L4.83939 10.5319L4.71008 11.4772C4.71008 11.7576 4.76568 11.9865 4.87637 12.18C5.23088 12.7936 6.24213 12.8855 6.81419 12.8855C7.55127 12.8855 8.24269 12.7304 8.70993 12.4472C9.52097 11.9726 9.73317 11.2306 9.92241 10.5713L10.0101 10.2331C10.0101 10.2331 10.7952 7.09306 10.9286 6.68458C10.9337 6.66185 10.9357 6.64997 10.9426 6.63911ZM13.6136 9.17218C13.4243 9.17218 13.0785 9.21765 12.7679 9.36846C12.6551 9.4258 12.5485 9.49199 12.436 9.55792L12.5375 9.19491L12.4819 9.13378C11.8232 9.2659 11.6758 9.28358 11.0672 9.36846L11.0162 9.40206C10.9456 9.98231 10.8828 10.4186 10.6209 11.5591C10.5212 11.9795 10.4176 12.4039 10.3138 12.8232L10.3419 12.8765C10.9655 12.8439 11.1547 12.8439 11.6967 12.8528L11.7405 12.8055C11.8094 12.4562 11.8183 12.3743 11.9708 11.6667C12.0425 11.3313 12.192 10.5941 12.2657 10.3317C12.4011 10.2695 12.5347 10.2084 12.6623 10.2084C12.966 10.2084 12.929 10.4709 12.9173 10.5755C12.9043 10.751 12.7936 11.3245 12.6801 11.8168L12.6044 12.1346C12.5516 12.3693 12.4937 12.5974 12.4409 12.83L12.4638 12.8765C13.0785 12.8439 13.266 12.8439 13.7908 12.8528L13.8526 12.8055C13.9474 12.2599 13.9752 12.1139 14.1436 11.3194L14.2282 10.9544C14.3927 10.24 14.4754 9.87773 14.3509 9.58268C14.2193 9.252 13.9036 9.17218 13.6136 9.17218ZM16.5974 9.92014C16.2707 9.98229 16.0623 10.0237 15.8552 10.0505C15.6499 10.0831 15.4497 10.1126 15.1339 10.1561L15.1089 10.1786L15.086 10.1965C15.0531 10.4294 15.0301 10.6307 14.9865 10.8674C14.9495 11.1122 14.8927 11.3904 14.8001 11.79C14.7284 12.0959 14.6914 12.2025 14.6506 12.3101C14.6108 12.4177 14.567 12.5223 14.4864 12.8232L14.5053 12.851L14.5211 12.8765C14.8162 12.8626 15.0092 12.8527 15.2077 12.851C15.4058 12.8439 15.6111 12.851 15.9289 12.8527L15.9567 12.8303L15.9866 12.8055C16.0325 12.5342 16.0393 12.4612 16.0674 12.3288C16.0952 12.1869 16.1432 11.9903 16.2607 11.4654C16.3163 11.2188 16.3783 10.973 16.4359 10.7214C16.4959 10.4708 16.5586 10.224 16.6183 9.97749L16.6094 9.94768L16.5974 9.92014ZM16.6043 8.91165C16.3075 8.73811 15.7864 8.79318 15.4357 9.03291C15.0861 9.26784 15.0463 9.60129 15.3421 9.77711C15.6339 9.94586 16.157 9.89559 16.5046 9.65384C16.8535 9.41385 16.8971 9.08343 16.6043 8.91165ZM18.3997 12.9309C19.0004 12.9309 19.616 12.7669 20.0794 12.2804C20.436 11.8858 20.5995 11.2987 20.6561 11.057C20.8405 10.2557 20.6969 9.88157 20.5166 9.65371C20.2427 9.30637 19.7586 9.19496 19.2564 9.19496C18.9544 9.19496 18.2352 9.22452 17.6734 9.73758C17.2699 10.1077 17.0834 10.6099 16.971 11.0913C16.8575 11.5819 16.7269 12.4651 17.5469 12.7937C17.7999 12.9013 18.1646 12.9309 18.3997 12.9309ZM18.3528 11.128C18.4913 10.5212 18.6548 10.0119 19.072 10.0119C19.399 10.0119 19.4227 10.3908 19.2773 10.9996C19.2513 11.1348 19.132 11.6372 18.9705 11.8512C18.8578 12.0091 18.7244 12.1048 18.577 12.1048C18.5331 12.1048 18.2722 12.1048 18.2681 11.7211C18.2661 11.5316 18.3051 11.3381 18.3528 11.128ZM22.1575 12.8528L22.2045 12.8056C22.271 12.4562 22.282 12.3741 22.4294 11.6668C22.5031 11.3313 22.6556 10.5942 22.7273 10.3318C22.863 10.2694 22.9943 10.2082 23.1259 10.2082C23.4277 10.2082 23.3909 10.4707 23.3789 10.5753C23.368 10.7511 23.2573 11.3243 23.1418 11.8166L23.0701 12.1344C23.0153 12.3693 22.9556 12.5972 22.9028 12.8301L22.9257 12.8766C23.5424 12.844 23.7227 12.844 24.2507 12.8528L24.3144 12.8056C24.407 12.2597 24.432 12.1137 24.6054 11.3195L24.6881 10.9542C24.8533 10.2398 24.937 9.8778 24.8146 9.58275C24.6792 9.25208 24.3614 9.17225 24.0755 9.17225C23.886 9.17225 23.5383 9.21747 23.2295 9.36853C23.1191 9.42588 23.0084 9.49181 22.8997 9.55799L22.9943 9.19499L22.9436 9.1336C22.2851 9.26597 22.1346 9.28365 21.5268 9.36853L21.4801 9.40213C21.4064 9.98239 21.3465 10.4184 21.0846 11.5592C20.9848 11.9796 20.8813 12.404 20.7778 12.8233L20.8056 12.8766C21.4302 12.844 21.6166 12.844 22.1575 12.8528ZM26.6885 12.8765C26.7273 12.689 26.9576 11.578 26.9596 11.578C26.9596 11.578 27.1558 10.7628 27.1677 10.7333C27.1677 10.7333 27.2295 10.6484 27.2912 10.6148H27.382C28.2387 10.6148 29.2061 10.6148 29.9643 10.0623C30.4802 9.68342 30.833 9.12388 30.9903 8.44384C31.0311 8.27711 31.0612 8.07881 31.0612 7.88051C31.0612 7.62006 31.0084 7.3624 30.8559 7.16106C30.4693 6.62527 29.6993 6.61541 28.8105 6.61137C28.8077 6.61137 28.3723 6.61541 28.3723 6.61541C27.2346 6.62931 26.7783 6.62527 26.5908 6.60253C26.575 6.68463 26.5452 6.83064 26.5452 6.83064C26.5452 6.83064 26.1376 8.70151 26.1376 8.70454C26.1376 8.70454 25.1623 12.6822 25.1164 12.8696C26.1098 12.8578 26.5171 12.8578 26.6885 12.8765ZM27.4437 9.55307C27.4437 9.55307 27.877 7.68599 27.875 7.69307L27.889 7.59733L27.8951 7.52432L28.0683 7.542C28.0683 7.542 28.962 7.61804 28.9829 7.62006C29.3356 7.75521 29.481 8.10357 29.3795 8.55827C29.2869 8.97382 29.0148 9.32319 28.6651 9.49194C28.3772 9.63492 28.0244 9.64679 27.661 9.64679H27.4258L27.4437 9.55307ZM30.1417 11.1626C30.0271 11.6461 29.8955 12.5292 30.7114 12.844C30.9716 12.9536 31.2047 12.9862 31.4416 12.9743C31.6918 12.9609 31.9236 12.8366 32.1384 12.6578C32.119 12.7313 32.0996 12.8048 32.0802 12.8786L32.1172 12.9258C32.7041 12.9013 32.8862 12.9013 33.522 12.9061L33.5796 12.8626C33.6725 12.3221 33.76 11.7971 34.0012 10.7629C34.1188 10.2675 34.2361 9.77696 34.3568 9.2836L34.3379 9.22929C33.6814 9.34979 33.5059 9.37556 32.8744 9.46422L32.8265 9.50287C32.8201 9.55314 32.8135 9.60139 32.8074 9.64964C32.7092 9.49252 32.5669 9.35838 32.3473 9.27476C32.0665 9.16538 31.4069 9.30634 30.84 9.81763C30.4416 10.1827 30.2503 10.6828 30.1417 11.1626ZM31.5204 11.1921C31.6609 10.5962 31.8224 10.092 32.2407 10.092C32.5051 10.092 32.6444 10.3337 32.6161 10.746C32.5936 10.8488 32.5694 10.9572 32.5406 11.0797C32.4988 11.2568 32.4534 11.4323 32.4092 11.6082C32.3644 11.7284 32.3121 11.8418 32.2547 11.9174C32.1471 12.0684 31.891 12.1621 31.7436 12.1621C31.7018 12.1621 31.4437 12.1621 31.4347 11.7852C31.4327 11.5976 31.4717 11.4043 31.5204 11.1921ZM38.7204 9.22447L38.6697 9.16712C38.0201 9.29747 37.9025 9.31819 37.3057 9.39801L37.2618 9.44146C37.2598 9.44854 37.258 9.4594 37.2549 9.46925L37.2529 9.4594C36.8086 10.4747 36.8216 10.2556 36.46 11.0549C36.4579 11.0185 36.4579 10.9958 36.4559 10.9572L36.3654 9.22447L36.3085 9.16712C35.628 9.29747 35.612 9.31819 34.9835 9.39801L34.9346 9.44146C34.9277 9.46218 34.9277 9.48491 34.9236 9.50967L34.9277 9.51851C35.0062 9.91613 34.9874 9.82746 35.0662 10.455C35.1029 10.7629 35.1519 11.0726 35.1886 11.3767C35.2506 11.8858 35.2852 12.1364 35.361 12.9131C34.9366 13.6068 34.8361 13.8693 34.4275 14.4781L34.4303 14.4842L34.1426 14.9348C34.1097 14.9823 34.0799 15.0149 34.0381 15.0288C33.9922 15.0513 33.9325 15.0553 33.8496 15.0553H33.6902L33.4533 15.8359L34.2661 15.8498C34.7433 15.8478 35.0432 15.6267 35.2046 15.3297L35.7158 14.4622H35.7076L35.7614 14.401C36.1052 13.668 38.7204 9.22447 38.7204 9.22447ZM30.1416 19.4762H29.7968L31.073 15.2952H31.4964L31.6308 14.8645L31.6438 15.3434C31.628 15.6395 31.8632 15.902 32.4809 15.8585H33.1953L33.4411 15.0534H33.1723C33.0178 15.0534 32.9461 15.0148 32.955 14.9319L32.942 14.4446H31.6191V14.4471C31.1914 14.456 29.9141 14.4878 29.6555 14.556C29.3426 14.6358 29.0128 14.8708 29.0128 14.8708L29.1424 14.4396H27.9049L27.647 15.2952L26.3537 19.5401H26.1028L25.8566 20.3394H28.3214L28.2387 20.6059H29.4533L29.5339 20.3394H29.8746L30.1416 19.4762ZM29.1304 16.1447C28.9322 16.199 28.5634 16.3637 28.5634 16.3637L28.8914 15.2952H29.8746L29.6374 16.0737C29.6374 16.0737 29.3336 16.0914 29.1304 16.1447ZM29.1493 17.6713C29.1493 17.6713 28.8404 17.7097 28.6371 17.7551C28.4369 17.8153 28.0615 18.0047 28.0615 18.0047L28.4002 16.8927H29.3885L29.1493 17.6713ZM28.5984 19.486H27.6121L27.898 18.5476H28.8812L28.5984 19.486ZM30.9735 16.8927H32.3951L32.1908 17.548H30.7503L30.534 18.2644H31.7945L30.8401 19.5954C30.7733 19.6932 30.7133 19.7278 30.6468 19.7553C30.5799 19.7889 30.4922 19.8283 30.3907 19.8283H30.041L29.8008 20.613H30.7154C31.1908 20.613 31.4716 20.3987 31.6789 20.1176L32.3334 19.2304L32.4739 20.1312C32.5037 20.3 32.6262 20.3987 32.709 20.4371C32.8006 20.4826 32.8952 20.5607 33.0289 20.5723C33.1722 20.5784 33.2758 20.5832 33.3446 20.5832H33.794L34.0638 19.7051H33.8866C33.7848 19.7051 33.6096 19.6881 33.5798 19.6566C33.5499 19.6182 33.5499 19.5591 33.5339 19.4691L33.3913 18.5663H32.8075L33.0636 18.2644H34.5012L34.7224 17.548H33.3913L33.5986 16.8927H34.9256L35.1717 16.0846H31.2155L30.9735 16.8927ZM18.9665 19.6685L19.2983 18.5752H20.662L20.9112 17.762H19.5462L19.7546 17.0891H21.0884L21.3356 16.3017H17.9981L17.756 17.0891H18.5143L18.312 17.762H17.5518L17.2998 18.5891H18.0578L17.6155 20.0356C17.5558 20.227 17.6436 20.3 17.6992 20.389C17.756 20.4756 17.8137 20.533 17.9432 20.5655C18.0769 20.5951 18.1685 20.6128 18.2929 20.6128H19.8303L20.1042 19.712L19.4228 19.8047C19.2912 19.8047 18.9267 19.789 18.9665 19.6685ZM19.1229 14.4346L18.7773 15.0533C18.7034 15.1884 18.6368 15.2723 18.5769 15.311C18.5241 15.3435 18.4195 15.3572 18.268 15.3572H18.0877L17.8467 16.1486H18.4455C18.7334 16.1486 18.9546 16.044 19.0602 15.9918C19.1737 15.9316 19.2035 15.966 19.2912 15.8821L19.4935 15.7086H21.3635L21.6116 14.8845H20.2428L20.4818 14.4346H19.1229ZM21.8836 19.6844C21.8517 19.6389 21.8747 19.5589 21.9234 19.3921L22.4345 17.7165H24.2527C24.5177 17.7127 24.709 17.7097 24.8334 17.7009C24.9671 17.687 25.1124 17.6397 25.2708 17.5549C25.4343 17.4659 25.518 17.3722 25.5886 17.2646C25.6674 17.1572 25.7939 16.9223 25.9026 16.5601L26.545 14.4396L24.6582 14.4505C24.6582 14.4505 24.0772 14.5354 23.8214 14.6291C23.5633 14.7337 23.1945 15.0257 23.1945 15.0257L23.3649 14.4444H22.1993L20.5676 19.8046C20.5097 20.0128 20.4709 20.1639 20.462 20.2546C20.4589 20.3523 20.5864 20.4491 20.6691 20.5221C20.7668 20.5951 20.9111 20.5832 21.0496 20.5951C21.1952 20.6059 21.4023 20.6128 21.6882 20.6128H22.5839L22.8589 19.6932L22.057 19.7683C21.9713 19.7683 21.9094 19.7228 21.8836 19.6844ZM22.7643 16.5848H24.674L24.5526 16.9617C24.5355 16.9706 24.4947 16.943 24.3004 16.9658H22.6467L22.7643 16.5848ZM23.1468 15.3207H25.0727L24.9342 15.7747C24.9342 15.7747 24.0265 15.7658 23.8811 15.7924C23.2414 15.902 22.8678 16.2405 22.8678 16.2405L23.1468 15.3207ZM24.5954 18.2239C24.5796 18.2802 24.5546 18.3145 24.5196 18.3403C24.4809 18.3651 24.4181 18.3739 24.3245 18.3739H24.0524L24.0685 17.9149H22.9366L22.8907 20.1589C22.8889 20.3208 22.9047 20.4145 23.0243 20.4896C23.1439 20.5833 23.5125 20.5952 24.0085 20.5952H24.7178L24.9739 19.7552L24.3564 19.7888L24.1511 19.8007C24.123 19.7888 24.0963 19.7779 24.0664 19.7484C24.0404 19.7229 23.9965 19.7385 24.0037 19.5766L24.0085 19.0014L24.6561 18.9749C25.0057 18.9749 25.1552 18.8622 25.2827 18.7549C25.4044 18.652 25.4442 18.5338 25.4901 18.3739L25.5987 17.8646H24.7089L24.5954 18.2239Z" fill="#FEFEFE"/>
</g>
<defs>
<clipPath id="clip0_1_55">
<rect width="42" height="26" fill="white"/>
</clipPath>
</defs>
</svg>
