<svg width="70" height="25" viewBox="0 0 70 25" fill="none" xmlns="http://www.w3.org/2000/svg">
<g clip-path="url(#clip0_1_94)">
<path fill-rule="evenodd" clip-rule="evenodd" d="M24.2961 12.5091C24.2961 19.3323 18.8989 24.8636 12.2411 24.8636C5.58296 24.8636 0.185608 19.3323 0.185608 12.5091C0.185608 5.68582 5.58296 0.154535 12.2411 0.154535C18.8989 0.154535 24.2961 5.68582 24.2961 12.5091Z" fill="#ED342B"/>
<path fill-rule="evenodd" clip-rule="evenodd" d="M12.2408 17.8011C9.5443 11.5371 7.56718 5.68531 7.56718 5.68531H3.4335C3.4335 5.68531 5.94946 13.1961 10.6229 22.5888H13.8587C18.5321 13.1961 21.0479 5.68531 21.0479 5.68531H16.9142C16.9142 5.68531 14.9373 11.5371 12.2408 17.8011Z" fill="#FEFEFE"/>
<path fill-rule="evenodd" clip-rule="evenodd" d="M64.1576 11.8647C61.8208 11.8647 61.6414 14.4436 61.6414 14.4436L66.6735 14.4436C66.6735 14.4436 66.494 11.8647 64.1576 11.8647ZM69.7291 17.0221H61.6414C61.6414 17.0221 61.8208 19.7854 65.4158 19.7854C67.2129 19.7854 69.0102 19.2323 69.0102 19.2323L69.3699 22.1793C69.3699 22.1793 67.5726 22.9166 65.0562 22.9166C61.4616 22.9166 58.2265 21.0744 58.2265 15.917C58.2265 11.8647 60.7429 9.28595 64.3374 9.28595C69.7291 9.28595 70.0884 14.8118 69.7291 17.0221ZM42.2277 12.6699L42.7843 9.62857C42.7843 9.62857 38.487 8.29224 34.9943 10.7687V22.9339H38.7036V13.0497C40.1873 11.9097 42.2277 12.6699 42.2277 12.6699ZM26.7661 11.8647C24.4298 11.8647 24.2502 14.4436 24.2502 14.4436H29.2824C29.2824 14.4436 29.1029 11.8647 26.7661 11.8647ZM32.3377 17.0221H24.2502C24.2502 17.0221 24.4298 19.7854 28.0244 19.7854C29.8212 19.7854 31.6187 19.2323 31.6187 19.2323L31.9784 22.1793C31.9784 22.1793 30.1809 22.9166 27.6647 22.9166C24.0701 22.9166 20.8348 21.0744 20.8348 15.917C20.8348 11.8647 23.3512 9.28595 26.9458 9.28595C32.3377 9.28595 32.6969 14.8118 32.3377 17.0221ZM51.2801 18.2845C49.3966 13.6514 48.4552 9.28817 48.4552 9.28817L44.6889 9.28863C44.6889 9.28863 46.5723 16.74 49.7741 22.9143H52.7861C55.9881 16.74 57.8714 9.28972 57.8714 9.28972H54.105C54.105 9.28972 53.1636 13.6514 51.2801 18.2845Z" fill="#03435F"/>
</g>
<defs>
<clipPath id="clip0_1_94">
<rect width="70" height="25" fill="white"/>
</clipPath>
</defs>
</svg>
