<svg width="78" height="25" viewBox="0 0 78 25" fill="none" xmlns="http://www.w3.org/2000/svg">
<g clip-path="url(#clip0_1_99)">
<path d="M33.7998 24.6393H27.4812L31.4333 0.438683H37.7515L33.7998 24.6393Z" fill="#00579F"/>
<path d="M56.7051 1.03031C55.4588 0.540645 53.4821 -7.62939e-06 51.0379 -7.62939e-06C44.7981 -7.62939e-06 40.4041 3.29523 40.3772 8.00643C40.3253 11.4823 43.5231 13.4129 45.9148 14.5719C48.3594 15.7562 49.1904 16.5292 49.1904 17.5849C49.1655 19.2061 47.215 19.9535 45.3959 19.9535C42.8732 19.9535 41.5215 19.5682 39.4674 18.6662L38.6354 18.2795L37.7512 23.712C39.2331 24.3806 41.9634 24.974 44.7981 25C51.428 25 55.7442 21.7558 55.7954 16.7352C55.8206 13.9803 54.132 11.8694 50.4916 10.1444C48.2817 9.03709 46.9283 8.29044 46.9283 7.15747C46.9542 6.12749 48.073 5.07254 50.5676 5.07254C52.6218 5.02087 54.131 5.50985 55.2743 5.99917L55.8458 6.25615L56.7051 1.03031Z" fill="#00579F"/>
<path d="M65.1032 16.0659C65.6235 14.6756 67.6258 9.29476 67.6258 9.29476C67.5996 9.34643 68.1451 7.8788 68.4571 6.97783L68.8987 9.0631C68.8987 9.0631 70.0953 14.8559 70.3551 16.0659C69.3676 16.0659 66.3512 16.0659 65.1032 16.0659ZM72.9026 0.438683H68.0152C66.508 0.438683 65.363 0.875994 64.7127 2.44662L55.3273 24.639H61.9572C61.9572 24.639 63.0487 21.6521 63.2833 21.0088C64.0106 21.0088 70.4601 21.0088 71.3958 21.0088C71.5772 21.8584 72.1497 24.639 72.1497 24.639H78.0001L72.9026 0.438683Z" fill="#00579F"/>
<path d="M22.2039 0.438683L16.0159 16.9412L15.3397 13.5943C14.1957 9.73242 10.6078 5.53655 6.60393 3.45025L12.2719 24.6137H18.9535L28.8852 0.438683H22.2039Z" fill="#00579F"/>
<path d="M10.2699 0.438683H0.104001L0 0.927664C7.93006 2.93595 13.182 7.77683 15.3398 13.5953L13.1298 2.47297C12.766 0.927322 11.6479 0.489668 10.2699 0.438683Z" fill="#FAA61A"/>
</g>
<defs>
<clipPath id="clip0_1_99">
<rect width="78" height="25" fill="white"/>
</clipPath>
</defs>
</svg>
